# xmcd
#
# Track frame offsets:
#	150
#	20842
#	38001
#	56102
#	71894
#	89845
#	109996
#	130487
#	146321
#	163473
#
# Disc length: 2446 seconds
#
# Revision: 5
# Processed by: cddbd v1.5.2PL0 Copyright (c) Steve Scherf et al.
# Submitted via: dBpowerAMP V4.0
#
DISCID=9f098c0a
DTITLE=Beverley Craven - Mixed Emotions
DYEAR=1999
DGENRE=Blues
TTITLE0=I Miss You
TTITLE1=Tick Tock
TTITLE2=Come Home To Me
TTITLE3=Move On
TTITLE4=We Found A Place
TTITLE5=Say You're Sorry
TTITLE6=Talk To Me
TTITLE7=She Doesn't Need Saving
TTITLE8=Phoenix From The Fire
TTITLE9=Afraid Of Letting Go
EXTD=
EXTT0=
EXTT1=
EXTT2=
EXTT3=
EXTT4=
EXTT5=
EXTT6=
EXTT7=
EXTT8=
EXTT9=
PLAYORDER=
